<mxfile host="drawio-plugin" modified="2024-01-11T22:40:11.255Z" agent="5.0 (Windows NT 6.2; Win64; x64) AppleWebKit/537.36 (KHTML, like Gecko) Chrome/104.0.5112.102 Safari/537.36" version="20.5.3" etag="vK7GPXkwgNGej4M7GHoi" type="embed"><diagram id="VYN9BHXnVyGs0KzWxt9a" name="Page-1"><mxGraphModel dx="652" dy="563" grid="1" gridSize="10" guides="1" tooltips="1" connect="1" arrows="1" fold="1" page="1" pageScale="1" pageWidth="850" pageHeight="1100" math="0" shadow="0"><root><mxCell id="0"/><mxCell id="1" parent="0"/><mxCell id="6" value="«interface»&lt;br&gt;&lt;b&gt;PrintAble&lt;/b&gt;" style="html=1;fillColor=#60a917;fontColor=#ffffff;strokeColor=#2D7600;" vertex="1" parent="1"><mxGeometry x="40" y="40" width="210" height="30" as="geometry"/></mxCell><mxCell id="7" value="&lt;p style=&quot;margin: 4px 0px 0px;&quot;&gt;+ method:sendMessage(String) void&lt;br&gt;&lt;br&gt;&lt;/p&gt;" style="verticalAlign=top;align=left;overflow=fill;fontSize=12;fontFamily=Helvetica;html=1;fillColor=#6d8764;fontColor=#ffffff;strokeColor=#3A5431;fontStyle=1" vertex="1" parent="1"><mxGeometry x="40" y="70" width="210" height="20" as="geometry"/></mxCell><mxCell id="8" value="«interface»&lt;br&gt;&lt;b&gt;ReadAble&lt;/b&gt;" style="html=1;fillColor=#60a917;fontColor=#ffffff;strokeColor=#2D7600;" vertex="1" parent="1"><mxGeometry x="320" y="40" width="180" height="30" as="geometry"/></mxCell><mxCell id="9" value="&lt;p style=&quot;margin: 4px 0px 0px;&quot;&gt;+ method:readMessage() String&lt;br&gt;&lt;br&gt;&lt;/p&gt;" style="verticalAlign=top;align=left;overflow=fill;fontSize=12;fontFamily=Helvetica;html=1;fillColor=#6d8764;fontColor=#ffffff;strokeColor=#3A5431;" vertex="1" parent="1"><mxGeometry x="320" y="70" width="180" height="20" as="geometry"/></mxCell><mxCell id="10" value="«interface»&lt;br&gt;&lt;b&gt;EncryptAble&lt;/b&gt;" style="html=1;fillColor=#60a917;fontColor=#ffffff;strokeColor=#2D7600;" vertex="1" parent="1"><mxGeometry x="560" y="40" width="170" height="30" as="geometry"/></mxCell><mxCell id="11" value="&lt;p style=&quot;margin: 4px 0px 0px;&quot;&gt;+ method:encrypt(String) String&lt;br&gt;&lt;br&gt;&lt;/p&gt;" style="verticalAlign=top;align=left;overflow=fill;fontSize=12;fontFamily=Helvetica;html=1;fillColor=#6d8764;fontColor=#ffffff;strokeColor=#3A5431;" vertex="1" parent="1"><mxGeometry x="560" y="70" width="170" height="20" as="geometry"/></mxCell><mxCell id="12" value="&lt;p style=&quot;margin: 4px 0px 0px;&quot;&gt;+ method:decrypt(String) String&lt;br&gt;&lt;br&gt;&lt;/p&gt;" style="verticalAlign=top;align=left;overflow=fill;fontSize=12;fontFamily=Helvetica;html=1;fillColor=#6d8764;fontColor=#ffffff;strokeColor=#3A5431;" vertex="1" parent="1"><mxGeometry x="560" y="90" width="170" height="20" as="geometry"/></mxCell><mxCell id="16" value="ConsolePrinter" style="swimlane;fontStyle=1;align=center;verticalAlign=top;childLayout=stackLayout;horizontal=1;startSize=26;horizontalStack=0;resizeParent=1;resizeParentMax=0;resizeLast=0;collapsible=1;marginBottom=0;fillColor=#1ba1e2;fontColor=#ffffff;strokeColor=#006EAF;" vertex="1" parent="1"><mxGeometry x="40" y="160" width="210" height="46" as="geometry"/></mxCell><mxCell id="19" value="&lt;p style=&quot;margin: 4px 0px 0px;&quot;&gt;+ method:sendMessage(String) void&lt;br&gt;&lt;br&gt;&lt;/p&gt;" style="verticalAlign=top;align=left;overflow=fill;fontSize=12;fontFamily=Helvetica;html=1;fillColor=#6d8764;fontColor=#ffffff;strokeColor=#3A5431;fontStyle=1" vertex="1" parent="16"><mxGeometry y="26" width="210" height="20" as="geometry"/></mxCell><mxCell id="20" value="ConsoleReader" style="swimlane;fontStyle=1;align=center;verticalAlign=top;childLayout=stackLayout;horizontal=1;startSize=26;horizontalStack=0;resizeParent=1;resizeParentMax=0;resizeLast=0;collapsible=1;marginBottom=0;fillColor=#1ba1e2;fontColor=#ffffff;strokeColor=#006EAF;" vertex="1" parent="1"><mxGeometry x="320" y="160" width="180" height="46" as="geometry"/></mxCell><mxCell id="23" value="&lt;p style=&quot;margin: 4px 0px 0px;&quot;&gt;+ method:readMessage() String&lt;br&gt;&lt;br&gt;&lt;/p&gt;" style="verticalAlign=top;align=left;overflow=fill;fontSize=12;fontFamily=Helvetica;html=1;fillColor=#6d8764;fontColor=#ffffff;strokeColor=#3A5431;" vertex="1" parent="20"><mxGeometry y="26" width="180" height="20" as="geometry"/></mxCell><mxCell id="24" value="CeaseEnc" style="swimlane;fontStyle=1;align=center;verticalAlign=top;childLayout=stackLayout;horizontal=1;startSize=26;horizontalStack=0;resizeParent=1;resizeParentMax=0;resizeLast=0;collapsible=1;marginBottom=0;fillColor=#1ba1e2;fontColor=#ffffff;strokeColor=#006EAF;" vertex="1" parent="1"><mxGeometry x="555" y="160" width="190" height="48" as="geometry"/></mxCell><mxCell id="47" value="+ field: key                             int" style="text;strokeColor=#432D57;fillColor=#76608a;align=left;verticalAlign=top;spacingLeft=4;spacingRight=4;overflow=hidden;rotatable=0;points=[[0,0.5],[1,0.5]];portConstraint=eastwest;fontColor=#ffffff;" vertex="1" parent="24"><mxGeometry y="26" width="190" height="22" as="geometry"/></mxCell><mxCell id="29" value="&lt;p style=&quot;margin: 4px 0px 0px;&quot;&gt;+ method:decrypt(String) String&lt;br&gt;&lt;br&gt;&lt;/p&gt;" style="verticalAlign=top;align=left;overflow=fill;fontSize=12;fontFamily=Helvetica;html=1;fillColor=#6d8764;fontColor=#ffffff;strokeColor=#3A5431;" vertex="1" parent="1"><mxGeometry x="555" y="228" width="185" height="20" as="geometry"/></mxCell><mxCell id="31" value="" style="endArrow=block;dashed=1;endFill=0;endSize=12;html=1;rounded=0;fillColor=#60a917;strokeColor=#80FF00;entryX=0.5;entryY=1;entryDx=0;entryDy=0;exitX=0.5;exitY=0;exitDx=0;exitDy=0;" edge="1" parent="1" source="16" target="7"><mxGeometry width="160" relative="1" as="geometry"><mxPoint x="60" y="380" as="sourcePoint"/><mxPoint x="130" y="310" as="targetPoint"/><Array as="points"/></mxGeometry></mxCell><mxCell id="32" value="" style="endArrow=block;dashed=1;endFill=0;endSize=12;html=1;rounded=0;fillColor=#60a917;strokeColor=#80FF00;entryX=0.434;entryY=1.2;entryDx=0;entryDy=0;entryPerimeter=0;exitX=0.434;exitY=0.043;exitDx=0;exitDy=0;exitPerimeter=0;" edge="1" parent="1" source="20" target="9"><mxGeometry width="160" relative="1" as="geometry"><mxPoint x="460.1400000000001" y="396" as="sourcePoint"/><mxPoint x="390" y="320" as="targetPoint"/><Array as="points"/></mxGeometry></mxCell><mxCell id="33" value="" style="endArrow=block;dashed=1;endFill=0;endSize=12;html=1;rounded=0;fillColor=#60a917;strokeColor=#80FF00;entryX=0.46;entryY=1.05;entryDx=0;entryDy=0;entryPerimeter=0;" edge="1" parent="1" target="12"><mxGeometry width="160" relative="1" as="geometry"><mxPoint x="638" y="160" as="sourcePoint"/><mxPoint x="580" y="310" as="targetPoint"/><Array as="points"/></mxGeometry></mxCell><mxCell id="27" value="&lt;p style=&quot;margin: 4px 0px 0px;&quot;&gt;+ method:encrypt(String) String&lt;br&gt;&lt;br&gt;&lt;/p&gt;" style="verticalAlign=top;align=left;overflow=fill;fontSize=12;fontFamily=Helvetica;html=1;fillColor=#6d8764;fontColor=#ffffff;strokeColor=#3A5431;" vertex="1" parent="1"><mxGeometry x="555" y="208" width="190" height="20" as="geometry"/></mxCell><mxCell id="49" value="Encryptor" style="swimlane;fontStyle=1;align=center;verticalAlign=top;childLayout=stackLayout;horizontal=1;startSize=26;horizontalStack=0;resizeParent=1;resizeParentMax=0;resizeLast=0;collapsible=1;marginBottom=0;fillColor=#1ba1e2;fontColor=#ffffff;strokeColor=#006EAF;" vertex="1" parent="1"><mxGeometry x="245" y="290" width="185" height="92" as="geometry"/></mxCell><mxCell id="50" value="+ field: printer             PrintAble" style="text;strokeColor=#432D57;fillColor=#76608a;align=left;verticalAlign=top;spacingLeft=4;spacingRight=4;overflow=hidden;rotatable=0;points=[[0,0.5],[1,0.5]];portConstraint=eastwest;fontColor=#ffffff;" vertex="1" parent="49"><mxGeometry y="26" width="185" height="22" as="geometry"/></mxCell><mxCell id="53" value="+ field: enc             EncryptAble" style="text;strokeColor=#432D57;fillColor=#76608a;align=left;verticalAlign=top;spacingLeft=4;spacingRight=4;overflow=hidden;rotatable=0;points=[[0,0.5],[1,0.5]];portConstraint=eastwest;fontColor=#ffffff;" vertex="1" parent="49"><mxGeometry y="48" width="185" height="22" as="geometry"/></mxCell><mxCell id="54" value="+ field: reader            ReadAble" style="text;strokeColor=#432D57;fillColor=#76608a;align=left;verticalAlign=top;spacingLeft=4;spacingRight=4;overflow=hidden;rotatable=0;points=[[0,0.5],[1,0.5]];portConstraint=eastwest;fontColor=#ffffff;" vertex="1" parent="49"><mxGeometry y="70" width="185" height="22" as="geometry"/></mxCell><mxCell id="51" value="+ method: sendMessage()  void" style="text;strokeColor=#006EAF;fillColor=#6D8764;align=left;verticalAlign=top;spacingLeft=4;spacingRight=4;overflow=hidden;rotatable=0;points=[[0,0.5],[1,0.5]];portConstraint=eastwest;fontColor=#FFFFFF;" vertex="1" parent="1"><mxGeometry x="245" y="408" width="185" height="26" as="geometry"/></mxCell><mxCell id="52" value="+ method:recieveMessage() void" style="text;strokeColor=#006EAF;fillColor=#6D8764;align=left;verticalAlign=top;spacingLeft=4;spacingRight=4;overflow=hidden;rotatable=0;points=[[0,0.5],[1,0.5]];portConstraint=eastwest;fontColor=#FFFFFF;" vertex="1" parent="1"><mxGeometry x="245" y="382" width="185" height="26" as="geometry"/></mxCell></root></mxGraphModel></diagram></mxfile>